PathFileType	4	(X/Y/Z)	Patient4_TMGait_0pt6_01_right_38.trc.trc
DataRate	CameraRate	NumFrames	NumMarkers	Units	OrigDataRate	OrigDataStartFrame	OrigNumFrames
83.832335329341	83.832335329341	5	33	mm	83.832335329341	36	       141
Frame#	Time	Sacral			L.Shoulder			Chest			R.Shoulder			Neck			R.ASIS			L.ASIS			R.Thigh.Superior			R.Thigh.Lateral			R.Thigh.Inferior			R.Patella			L.Thigh.Superior			L.Thigh.Lateral			L.Thigh.Inferior			L.Patella			L.Shank.Superior			L.Shank.Lateral			L.Shank.Inferior			R.Shank.Superior			R.Shank.Lateral			R.Shank.Inferior			R.Heel			R.Midfoot.Superior			R.Midfoot.Lateral			R.Toe			L.Heel			L.Midfoot.Lateral			L.Midfoot.Superior			L.Toe			L.Elbow			L.Wrist			R.Elbow			R.Wrist			
		X1	Y1	Z1	X2	Y2	Z2	X3	Y3	Z3	X4	Y4	Z4	X5	Y5	Z5	X6	Y6	Z6	X7	Y7	Z7	X8	Y8	Z8	X9	Y9	Z9	X10	Y10	Z10	X11	Y11	Z11	X12	Y12	Z12	X13	Y13	Z13	X14	Y14	Z14	X15	Y15	Z15	X16	Y16	Z16	X17	Y17	Z17	X18	Y18	Z18	X19	Y19	Z19	X20	Y20	Z20	X21	Y21	Z21	X22	Y22	Z22	X23	Y23	Z23	X24	Y24	Z24	X25	Y25	Z25	X26	Y26	Z26	X27	Y27	Z27	X28	Y28	Z28	X29	Y29	Z29	X30	Y30	Z30	X31	Y31	Z31	X32	Y32	Z32	X33	Y33	Z33	

36	46.127500000000	744.411557809126	997.478124611329	461.701367367651	896.651492698455	1435.246588436927	289.679191721152	1004.000415604657	1366.989984939105	447.465366218046	919.292265594785	1429.532392562663	623.847958016089	878.299262507525	1491.147165036412	444.625848584118	975.028530267577	935.839620574206	571.908392127777	952.878997083334	960.821405528828	297.304676533671	1037.285647276666	748.821596301778	532.823945352630	973.666809206167	630.191914076818	595.079168793635	1054.807687501143	588.183764215132	511.679875126501	1067.313943942166	497.314415638544	519.073547851676	977.636575559015	734.366819649945	315.546100452051	872.884302166104	628.029327720035	259.198874031879	954.599498341469	536.386754889591	310.080205510948	941.134973570284	453.350445464455	308.831789088559	874.805711501395	397.506168582743	310.213340769938	733.717346342021	345.446527341031	273.994537027512	732.052592564672	218.048257244972	335.499900650817	1039.745216305223	407.124591024055	527.161302438557	970.277475352755	300.158779344072	584.921453344525	1018.916050356798	207.585378682885	524.465490094627	893.035256739147	41.041201575923	484.771067620525	1059.150082437988	97.610654890856	532.983271653082	969.861442937866	36.580559429603	566.960628369557	1177.227737956593	48.347794256253	573.412554084735	548.758054704729	133.936926167666	388.521100584342	607.934135163997	89.784524741291	309.762861697142	710.487140662844	115.029144140872	324.077126909018	801.700754572448	32.636976721384	304.650947998740	936.938183425005	1088.248982991654	157.398578177980	1149.252712069503	936.273147672194	140.160647337430	846.676074168737	1085.084669128530	728.089216680673	897.287581004230	829.933024534683	746.644021137915	
37	46.139428571429	744.899857625270	997.794968091111	464.896804899485	895.161361939968	1436.074908331349	292.305852052166	1003.965606257700	1367.736970214874	449.130907639068	920.638801775543	1429.805790676576	626.301985743985	878.175034262953	1491.655198949406	447.563126490061	976.136750823200	936.550592135572	573.661698162983	952.600710735828	961.366578944305	299.103696267978	1036.427392237979	747.788946602764	535.496615626271	971.026643961739	630.053427478904	597.047071588187	1051.890468342396	587.321248839083	513.772077898259	1063.309261271622	496.451844241354	520.702498892512	983.060990971695	736.596828934209	317.183118201527	882.820892611428	627.674569524009	259.562966728961	967.529796978626	537.750875772685	310.201574584128	955.139113648797	453.369138605287	308.026997986051	886.567327579314	397.816421486480	309.762286979324	743.504800380964	351.068743420984	273.731961564752	737.229935930544	223.883160464453	334.982260194219	1035.147363611212	406.468848668875	528.519163892430	965.026885940271	299.799236499934	585.837871531040	1012.897702004837	207.088379082433	524.993172845460	886.089972432387	41.049345019873	484.863543971149	1052.295289018932	97.393584132209	533.142747369326	962.874830193971	36.550802889978	567.083700257239	1170.361832638093	47.795658975128	573.619141040326	550.850433822658	149.897432344649	388.072568869957	607.184468510213	101.831844961158	309.427247997987	711.156234659825	120.576574882832	323.479600861535	796.047448477993	31.693506154855	304.293515999529	930.786750318469	1087.749504457566	161.388104474716	1135.836403718980	925.906289171437	142.288582531485	856.449673187799	1083.490614722174	731.979318049915	917.563095715218	830.508845566280	749.284696495340	
38	46.151357142857	745.159990699897	998.082708343965	467.999726446621	893.535468804069	1436.770315728870	294.785786826753	1003.857972992576	1368.347045910080	450.594407755311	921.996194469912	1429.942660107222	628.603192646258	878.052385718287	1492.054080681258	450.396121689638	977.009301502833	937.181477540570	575.397078897623	952.137718126851	961.777657244356	300.954713479419	1035.314273889542	746.717880046103	538.456259707194	968.004761742100	629.861962361393	599.128865836950	1048.715048134879	586.448832428854	516.103099448868	1059.007371047915	495.602248216064	522.557789488126	988.449973363645	739.049163027719	318.958066881287	892.990531671048	627.683016720956	259.865315082395	980.498425924027	539.660452665770	310.546151779534	969.358304350320	454.030196866145	307.557514008969	898.824615984705	398.609301779959	309.470965599316	754.075278858790	356.934948614377	273.507573304893	743.381342954208	230.160713795640	334.660500971890	1030.305177888717	405.826847723153	530.014173696210	959.564349827075	299.410102768694	586.829166836854	1006.765804224986	206.606680916046	525.599635267668	879.102829565756	41.074775157617	484.944080390649	1045.415018417011	97.121691504578	533.345859958287	955.833603054021	36.515117425641	567.208190199355	1163.453389207087	47.136136177554	573.853711557680	554.463745965772	166.048789867486	387.873629078812	607.856089165588	114.521901459901	309.190204490531	712.968154426694	126.889174247506	323.008020927242	791.514148346033	31.080652025261	303.657632938404	924.572225871934	1087.197799754467	165.223428192814	1121.650713066947	915.632537334796	144.603757367060	866.515888519350	1081.990848214727	735.809032171666	938.310779445968	831.653141789345	751.646340138546	
39	46.163285714286	745.182515917060	998.380665460040	470.983049133422	891.822083719572	1437.353252956601	297.097484652823	1003.689432818302	1368.836561909960	451.850400410910	923.363521921592	1429.993797471328	630.726712874522	877.946338272181	1492.380997225537	453.087712892753	977.636160033081	937.761491470440	577.122301090369	951.480122303183	962.090035604898	302.865768704325	1033.959432603831	745.678759068283	541.585393462733	964.690701028419	629.668215728719	601.276763140558	1045.321637871803	585.604088905065	518.588178077049	1054.447065546337	494.797859296712	524.578897767279	993.669369354513	741.760685276674	320.885222330335	903.167358376704	628.154219551596	260.138787276251	993.252942238301	542.182850956890	311.096318459426	983.563586526682	455.408368694861	307.355870921836	911.373608959379	399.946715052158	309.301842870313	765.214380049599	362.938893792424	273.360046756635	750.483038302651	236.687653900783	334.516373417622	1025.261556467211	405.226200409590	531.607102281680	953.923850818908	299.030765846910	587.883025153769	1000.544716348710	206.165042720665	526.277417046383	872.073081883146	41.123843053069	485.025854423062	1038.503167249394	96.824092855122	533.580209243413	948.744187584529	36.481445146580	567.337709338258	1156.503415752509	46.403901807820	574.107487850537	559.614154256714	181.700726957045	387.961595564469	610.112548088512	127.299505445460	309.068146479741	716.083547318296	133.739593485597	322.627576916094	788.566144352931	30.976947539781	302.699636610219	918.323864699614	1086.611382981530	168.895605624921	1106.731784505684	905.559086876281	147.119639992789	876.834858985496	1080.647556670416	739.499484162231	959.393751145981	833.448032032931	753.697821883543	
40	46.175214285714	744.975368862494	998.731337986253	473.833636659798	890.071522613633	1437.859577488770	299.229126282573	1003.470156202874	1369.240104181793	452.906231317252	924.734311053063	1430.028922158315	632.655409160230	877.864461590835	1492.685594755310	455.603303423423	978.016425903107	938.326593765477	578.839853083612	950.630096431305	962.354554968922	304.833439361240	1032.365583151716	744.726506615354	544.763743818852	961.143886183145	629.518484783214	603.439230322233	1041.720777858514	584.814443339133	521.138113053311	1049.641004412690	494.065686337107	526.690807308043	998.601850712631	744.767269258143	322.965356142023	913.132110889800	629.165681682753	260.412150498929	1005.577142642747	545.362344369497	311.798227567120	997.546945858719	457.555066206624	307.320640701226	924.032660040972	401.866636903786	309.193362737472	776.721287379660	368.939736434471	273.308456351241	758.530887340106	243.222513377957	334.503996055025	1020.035101684614	404.694296958297	533.252886775428	948.117393159037	298.697331037802	588.977587377517	994.246738511590	205.789336633893	527.015897682145	865.003599211256	41.200486309730	485.118482728454	1031.558640360167	96.529267583567	533.836338471091	941.616892479991	36.455378951885	567.471134704852	1149.515659189559	45.639620619548	574.370894251112	566.286385669331	196.119302415350	388.335849050451	614.105175045547	139.532274022590	309.056009173339	720.679745255373	140.811618150730	322.293389986464	787.714349414134	31.519422831688	301.401992106252	912.058231108397	1086.026559605215	172.407894790175	1091.117237867778	895.802986865572	149.845420976771	887.356247878000	1079.537540550576	742.973507524008	980.677128808857	835.985483703746	755.404125183268	
